<svg xmlns="http://www.w3.org/2000/svg" viewBox="-4 56 932 182" fill="none">
  <defs>
    <clipPath id="icon-clip">
      <path d="M 0.683594 65.214844 L 110.753906 65.214844 L 110.753906 224.699219 L 0.683594 224.699219 Z"/>
    </clipPath>
  </defs>
  <!-- Text shadow -->
  <g fill="#000000" fill-opacity="0.4">
    <g transform="translate(140.069313, 192.99665)"><path d="M 107.546875 0 L 87.0625 -71.859375 L 66.578125 0 L 34.140625 0 L -2.328125 -128.03125 L 30.109375 -128.03125 L 51.984375 -40.1875 L 52.765625 -40.1875 L 76.046875 -128.03125 L 98.078125 -128.03125 L 121.359375 -40.1875 L 122.125 -40.1875 L 144.015625 -128.03125 L 176.296875 -128.03125 L 139.828125 0 Z"/></g>
    <g transform="translate(307.210781, 192.99665)"><path d="M 11.953125 -124 C 15.160156 -127.207031 18.988281 -128.8125 23.4375 -128.8125 C 27.882812 -128.8125 31.710938 -127.207031 34.921875 -124 C 38.128906 -120.789062 39.734375 -116.960938 39.734375 -112.515625 C 39.734375 -108.066406 38.128906 -104.238281 34.921875 -101.03125 C 31.710938 -97.820312 27.882812 -96.21875 23.4375 -96.21875 C 18.988281 -96.21875 15.160156 -97.820312 11.953125 -101.03125 C 8.742188 -104.238281 7.140625 -108.066406 7.140625 -112.515625 C 7.140625 -116.960938 8.742188 -120.789062 11.953125 -124 Z M 9.3125 -79.609375 L 9.3125 0 L 36.78125 0 L 36.78125 -79.609375 Z"/></g>
    <g transform="translate(347.25013, 192.99665)"><path d="M 43.921875 -81.9375 C 48.472656 -81.9375 52.972656 -81.414062 57.421875 -80.375 C 61.867188 -79.34375 65.175781 -78.3125 67.34375 -77.28125 L 70.609375 -75.734375 L 61.609375 -57.734375 C 55.398438 -61.046875 49.503906 -62.703125 43.921875 -62.703125 C 40.816406 -62.703125 38.613281 -62.363281 37.3125 -61.6875 C 36.019531 -61.007812 35.375 -59.742188 35.375 -57.890625 C 35.375 -57.472656 35.425781 -57.054688 35.53125 -56.640625 C 35.632812 -56.222656 35.84375 -55.832031 36.15625 -55.46875 C 36.46875 -55.113281 36.753906 -54.804688 37.015625 -54.546875 C 37.273438 -54.285156 37.710938 -54 38.328125 -53.6875 C 38.953125 -53.382812 39.441406 -53.15625 39.796875 -53 C 40.160156 -52.84375 40.753906 -52.609375 41.578125 -52.296875 C 42.410156 -51.984375 43.035156 -51.75 43.453125 -51.59375 C 43.867188 -51.4375 44.566406 -51.203125 45.546875 -50.890625 C 46.523438 -50.585938 47.273438 -50.382812 47.796875 -50.28125 C 51.003906 -49.351562 53.796875 -48.316406 56.171875 -47.171875 C 58.554688 -46.035156 61.066406 -44.484375 63.703125 -42.515625 C 66.335938 -40.554688 68.378906 -38.078125 69.828125 -35.078125 C 71.273438 -32.078125 72 -28.660156 72 -24.828125 C 72 -6.722656 59.429688 2.328125 34.296875 2.328125 C 28.609375 2.328125 23.203125 1.445312 18.078125 -0.3125 C 12.953125 -2.070312 9.253906 -3.832031 6.984375 -5.59375 L 3.5625 -8.375 L 14.75 -27.15625 C 15.570312 -26.4375 16.65625 -25.582031 18 -24.59375 C 19.34375 -23.613281 21.773438 -22.269531 25.296875 -20.5625 C 28.816406 -18.851562 31.867188 -18 34.453125 -18 C 40.140625 -18 42.984375 -19.914062 42.984375 -23.75 C 42.984375 -25.5 42.257812 -26.863281 40.8125 -27.84375 C 39.363281 -28.832031 36.90625 -29.945312 33.4375 -31.1875 C 29.976562 -32.4375 27.265625 -33.578125 25.296875 -34.609375 C 20.328125 -37.191406 16.394531 -40.113281 13.5 -43.375 C 10.601562 -46.632812 9.15625 -50.953125 9.15625 -56.328125 C 9.15625 -64.398438 12.285156 -70.6875 18.546875 -75.1875 C 24.804688 -79.6875 33.265625 -81.9375 43.921875 -81.9375 Z"/></g>
    <g transform="translate(416.775947, 192.99665)"><path d="M 89.859375 -36 L 32.125 -36 C 32.125 -30.414062 33.929688 -26.273438 37.546875 -23.578125 C 41.171875 -20.890625 45.101562 -19.546875 49.34375 -19.546875 C 53.789062 -19.546875 57.304688 -20.140625 59.890625 -21.328125 C 62.484375 -22.523438 65.4375 -24.882812 68.75 -28.40625 L 88.609375 -18.46875 C 80.335938 -4.601562 66.578125 2.328125 47.328125 2.328125 C 35.328125 2.328125 25.03125 -1.78125 16.4375 -10 C 7.851562 -18.226562 3.5625 -28.132812 3.5625 -39.71875 C 3.5625 -51.3125 7.851562 -61.242188 16.4375 -69.515625 C 25.03125 -77.796875 35.328125 -81.9375 47.328125 -81.9375 C 59.953125 -81.9375 70.222656 -78.289062 78.140625 -71 C 86.054688 -63.707031 90.015625 -53.285156 90.015625 -39.734375 C 90.015625 -37.867188 89.960938 -36.625 89.859375 -36 Z M 32.90625 -51.21875 L 63.15625 -51.21875 C 62.539062 -55.351562 60.910156 -58.53125 58.265625 -60.75 C 55.628906 -62.976562 52.242188 -64.09375 48.109375 -64.09375 C 43.554688 -64.09375 39.929688 -62.898438 37.234375 -60.515625 C 34.546875 -58.140625 33.101562 -55.039062 32.90625 -51.21875 Z"/></g>
    <g transform="translate(503.528048, 192.99665)"><path d="M 56.484375 -130.359375 C 63.421875 -130.359375 70.195312 -129.347656 76.8125 -127.328125 C 83.4375 -125.316406 88.351562 -123.328125 91.5625 -121.359375 L 96.21875 -118.25 L 84.421875 -94.96875 C 83.492188 -95.59375 82.203125 -96.394531 80.546875 -97.375 C 78.890625 -98.363281 75.785156 -99.6875 71.234375 -101.34375 C 66.679688 -103 62.4375 -103.828125 58.5 -103.828125 C 53.644531 -103.828125 49.894531 -102.789062 47.25 -100.71875 C 44.613281 -98.644531 43.296875 -95.851562 43.296875 -92.34375 C 43.296875 -90.582031 43.914062 -88.953125 45.15625 -87.453125 C 46.394531 -85.953125 48.515625 -84.347656 51.515625 -82.640625 C 54.515625 -80.929688 57.148438 -79.554688 59.421875 -78.515625 C 61.703125 -77.484375 65.222656 -75.9375 69.984375 -73.875 C 78.265625 -70.351562 85.328125 -65.566406 91.171875 -59.515625 C 97.015625 -53.460938 99.9375 -46.609375 99.9375 -38.953125 C 99.9375 -31.609375 98.617188 -25.191406 95.984375 -19.703125 C 93.347656 -14.222656 89.726562 -9.929688 85.125 -6.828125 C 80.519531 -3.722656 75.421875 -1.421875 69.828125 0.078125 C 64.242188 1.578125 58.191406 2.328125 51.671875 2.328125 C 46.085938 2.328125 40.601562 1.753906 35.21875 0.609375 C 29.84375 -0.523438 25.34375 -1.941406 21.71875 -3.640625 C 18.101562 -5.347656 14.847656 -7.03125 11.953125 -8.6875 C 9.054688 -10.34375 6.9375 -11.738281 5.59375 -12.875 L 3.5625 -14.59375 L 18.15625 -39.109375 C 19.394531 -38.078125 21.097656 -36.757812 23.265625 -35.15625 C 25.441406 -33.550781 29.296875 -31.398438 34.828125 -28.703125 C 40.367188 -26.015625 45.257812 -24.671875 49.5 -24.671875 C 61.8125 -24.671875 67.96875 -28.863281 67.96875 -37.25 C 67.96875 -39.007812 67.523438 -40.640625 66.640625 -42.140625 C 65.765625 -43.640625 64.210938 -45.140625 61.984375 -46.640625 C 59.765625 -48.140625 57.800781 -49.328125 56.09375 -50.203125 C 54.394531 -51.078125 51.601562 -52.421875 47.71875 -54.234375 C 43.84375 -56.046875 40.972656 -57.414062 39.109375 -58.34375 C 31.347656 -62.175781 25.347656 -66.960938 21.109375 -72.703125 C 16.867188 -78.441406 14.75 -84.625 14.75 -91.25 C 14.75 -102.726562 18.988281 -112.113281 27.46875 -119.40625 C 35.945312 -126.707031 45.617188 -130.359375 56.484375 -130.359375 Z"/></g>
    <g transform="translate(600.988411, 192.99665)"><path d="M 13.96875 -79.609375 L 13.96875 -109.25 L 41.4375 -109.25 L 41.4375 -79.609375 L 58.203125 -79.609375 L 58.203125 -58.65625 L 41.4375 -58.65625 L 41.4375 -33.359375 C 41.4375 -26.015625 43.503906 -22.34375 47.640625 -22.34375 C 48.671875 -22.34375 49.753906 -22.550781 50.890625 -22.96875 C 52.035156 -23.382812 52.921875 -23.796875 53.546875 -24.203125 L 54.46875 -24.828125 L 61.296875 -2.640625 C 55.398438 0.671875 48.675781 2.328125 41.125 2.328125 C 35.945312 2.328125 31.492188 1.421875 27.765625 -0.390625 C 24.046875 -2.203125 21.226562 -4.632812 19.3125 -7.6875 C 17.40625 -10.738281 16.035156 -13.941406 15.203125 -17.296875 C 14.378906 -20.660156 13.96875 -24.257812 13.96875 -28.09375 L 13.96875 -58.65625 L 2.484375 -58.65625 L 2.484375 -79.609375 Z"/></g>
    <g transform="translate(655.460573, 192.99665)"><path d="M 16.828125 -9.46875 C 7.984375 -17.332031 3.5625 -27.421875 3.5625 -39.734375 C 3.5625 -52.046875 8.164062 -62.15625 17.375 -70.0625 C 26.582031 -77.976562 37.960938 -81.9375 51.515625 -81.9375 C 64.867188 -81.9375 76.125 -77.953125 85.28125 -69.984375 C 94.4375 -62.023438 99.015625 -51.941406 99.015625 -39.734375 C 99.015625 -27.523438 94.535156 -17.460938 85.578125 -9.546875 C 76.628906 -1.628906 65.273438 2.328125 51.515625 2.328125 C 37.242188 2.328125 25.679688 -1.601562 16.828125 -9.46875 Z M 38.09375 -53.21875 C 34.53125 -49.707031 32.75 -45.207031 32.75 -39.71875 C 32.75 -34.238281 34.453125 -29.765625 37.859375 -26.296875 C 41.273438 -22.835938 45.773438 -21.109375 51.359375 -21.109375 C 56.742188 -21.109375 61.164062 -22.863281 64.625 -26.375 C 68.09375 -29.894531 69.828125 -34.347656 69.828125 -39.734375 C 69.828125 -45.210938 68.039062 -49.707031 64.46875 -53.21875 C 60.90625 -56.738281 56.535156 -58.5 51.359375 -58.5 C 46.085938 -58.5 41.664062 -56.738281 38.09375 -53.21875 Z"/></g>
    <g transform="translate(751.213791, 192.99665)"><path d="M 9.3125 0 L 9.3125 -79.609375 L 36.78125 -79.609375 L 36.78125 -68.125 L 37.09375 -68.125 C 37.300781 -68.539062 37.632812 -69.054688 38.09375 -69.671875 C 38.5625 -70.296875 39.570312 -71.382812 41.125 -72.9375 C 42.675781 -74.488281 44.332031 -75.882812 46.09375 -77.125 C 47.851562 -78.363281 50.128906 -79.472656 52.921875 -80.453125 C 55.710938 -81.441406 58.554688 -81.9375 61.453125 -81.9375 C 64.453125 -81.9375 67.398438 -81.519531 70.296875 -80.6875 C 73.191406 -79.863281 75.3125 -79.039062 76.65625 -78.21875 L 78.828125 -76.96875 L 67.34375 -53.6875 C 63.9375 -56.59375 59.179688 -58.046875 53.078125 -58.046875 C 49.765625 -58.046875 46.914062 -57.316406 44.53125 -55.859375 C 42.15625 -54.410156 40.472656 -52.648438 39.484375 -50.578125 C 38.503906 -48.515625 37.804688 -46.757812 37.390625 -45.3125 C 36.984375 -43.863281 36.78125 -42.726562 36.78125 -41.90625 L 36.78125 0 Z"/></g>
    <g transform="translate(821.67078, 192.99665)"><path d="M 69.671875 -79.609375 L 101.34375 -79.609375 L 38.796875 40.34375 L 7.140625 40.34375 L 34.609375 -12.421875 L -3.109375 -79.609375 L 28.546875 -79.609375 L 50.75 -38.796875 Z"/></g>
  </g>
  <!-- Text -->
  <g fill="#000000" fill-opacity="1">
    <g transform="translate(140.069313, 192.99665)"><path d="M 107.546875 0 L 87.0625 -71.859375 L 66.578125 0 L 34.140625 0 L -2.328125 -128.03125 L 30.109375 -128.03125 L 51.984375 -40.1875 L 52.765625 -40.1875 L 76.046875 -128.03125 L 98.078125 -128.03125 L 121.359375 -40.1875 L 122.125 -40.1875 L 144.015625 -128.03125 L 176.296875 -128.03125 L 139.828125 0 Z"/></g>
    <g transform="translate(307.210781, 192.99665)"><path d="M 11.953125 -124 C 15.160156 -127.207031 18.988281 -128.8125 23.4375 -128.8125 C 27.882812 -128.8125 31.710938 -127.207031 34.921875 -124 C 38.128906 -120.789062 39.734375 -116.960938 39.734375 -112.515625 C 39.734375 -108.066406 38.128906 -104.238281 34.921875 -101.03125 C 31.710938 -97.820312 27.882812 -96.21875 23.4375 -96.21875 C 18.988281 -96.21875 15.160156 -97.820312 11.953125 -101.03125 C 8.742188 -104.238281 7.140625 -108.066406 7.140625 -112.515625 C 7.140625 -116.960938 8.742188 -120.789062 11.953125 -124 Z M 9.3125 -79.609375 L 9.3125 0 L 36.78125 0 L 36.78125 -79.609375 Z"/></g>
    <g transform="translate(347.25013, 192.99665)"><path d="M 43.921875 -81.9375 C 48.472656 -81.9375 52.972656 -81.414062 57.421875 -80.375 C 61.867188 -79.34375 65.175781 -78.3125 67.34375 -77.28125 L 70.609375 -75.734375 L 61.609375 -57.734375 C 55.398438 -61.046875 49.503906 -62.703125 43.921875 -62.703125 C 40.816406 -62.703125 38.613281 -62.363281 37.3125 -61.6875 C 36.019531 -61.007812 35.375 -59.742188 35.375 -57.890625 C 35.375 -57.472656 35.425781 -57.054688 35.53125 -56.640625 C 35.632812 -56.222656 35.84375 -55.832031 36.15625 -55.46875 C 36.46875 -55.113281 36.753906 -54.804688 37.015625 -54.546875 C 37.273438 -54.285156 37.710938 -54 38.328125 -53.6875 C 38.953125 -53.382812 39.441406 -53.15625 39.796875 -53 C 40.160156 -52.84375 40.753906 -52.609375 41.578125 -52.296875 C 42.410156 -51.984375 43.035156 -51.75 43.453125 -51.59375 C 43.867188 -51.4375 44.566406 -51.203125 45.546875 -50.890625 C 46.523438 -50.585938 47.273438 -50.382812 47.796875 -50.28125 C 51.003906 -49.351562 53.796875 -48.316406 56.171875 -47.171875 C 58.554688 -46.035156 61.066406 -44.484375 63.703125 -42.515625 C 66.335938 -40.554688 68.378906 -38.078125 69.828125 -35.078125 C 71.273438 -32.078125 72 -28.660156 72 -24.828125 C 72 -6.722656 59.429688 2.328125 34.296875 2.328125 C 28.609375 2.328125 23.203125 1.445312 18.078125 -0.3125 C 12.953125 -2.070312 9.253906 -3.832031 6.984375 -5.59375 L 3.5625 -8.375 L 14.75 -27.15625 C 15.570312 -26.4375 16.65625 -25.582031 18 -24.59375 C 19.34375 -23.613281 21.773438 -22.269531 25.296875 -20.5625 C 28.816406 -18.851562 31.867188 -18 34.453125 -18 C 40.140625 -18 42.984375 -19.914062 42.984375 -23.75 C 42.984375 -25.5 42.257812 -26.863281 40.8125 -27.84375 C 39.363281 -28.832031 36.90625 -29.945312 33.4375 -31.1875 C 29.976562 -32.4375 27.265625 -33.578125 25.296875 -34.609375 C 20.328125 -37.191406 16.394531 -40.113281 13.5 -43.375 C 10.601562 -46.632812 9.15625 -50.953125 9.15625 -56.328125 C 9.15625 -64.398438 12.285156 -70.6875 18.546875 -75.1875 C 24.804688 -79.6875 33.265625 -81.9375 43.921875 -81.9375 Z"/></g>
    <g transform="translate(416.775947, 192.99665)"><path d="M 89.859375 -36 L 32.125 -36 C 32.125 -30.414062 33.929688 -26.273438 37.546875 -23.578125 C 41.171875 -20.890625 45.101562 -19.546875 49.34375 -19.546875 C 53.789062 -19.546875 57.304688 -20.140625 59.890625 -21.328125 C 62.484375 -22.523438 65.4375 -24.882812 68.75 -28.40625 L 88.609375 -18.46875 C 80.335938 -4.601562 66.578125 2.328125 47.328125 2.328125 C 35.328125 2.328125 25.03125 -1.78125 16.4375 -10 C 7.851562 -18.226562 3.5625 -28.132812 3.5625 -39.71875 C 3.5625 -51.3125 7.851562 -61.242188 16.4375 -69.515625 C 25.03125 -77.796875 35.328125 -81.9375 47.328125 -81.9375 C 59.953125 -81.9375 70.222656 -78.289062 78.140625 -71 C 86.054688 -63.707031 90.015625 -53.285156 90.015625 -39.734375 C 90.015625 -37.867188 89.960938 -36.625 89.859375 -36 Z M 32.90625 -51.21875 L 63.15625 -51.21875 C 62.539062 -55.351562 60.910156 -58.53125 58.265625 -60.75 C 55.628906 -62.976562 52.242188 -64.09375 48.109375 -64.09375 C 43.554688 -64.09375 39.929688 -62.898438 37.234375 -60.515625 C 34.546875 -58.140625 33.101562 -55.039062 32.90625 -51.21875 Z"/></g>
    <g transform="translate(503.528048, 192.99665)"><path d="M 56.484375 -130.359375 C 63.421875 -130.359375 70.195312 -129.347656 76.8125 -127.328125 C 83.4375 -125.316406 88.351562 -123.328125 91.5625 -121.359375 L 96.21875 -118.25 L 84.421875 -94.96875 C 83.492188 -95.59375 82.203125 -96.394531 80.546875 -97.375 C 78.890625 -98.363281 75.785156 -99.6875 71.234375 -101.34375 C 66.679688 -103 62.4375 -103.828125 58.5 -103.828125 C 53.644531 -103.828125 49.894531 -102.789062 47.25 -100.71875 C 44.613281 -98.644531 43.296875 -95.851562 43.296875 -92.34375 C 43.296875 -90.582031 43.914062 -88.953125 45.15625 -87.453125 C 46.394531 -85.953125 48.515625 -84.347656 51.515625 -82.640625 C 54.515625 -80.929688 57.148438 -79.554688 59.421875 -78.515625 C 61.703125 -77.484375 65.222656 -75.9375 69.984375 -73.875 C 78.265625 -70.351562 85.328125 -65.566406 91.171875 -59.515625 C 97.015625 -53.460938 99.9375 -46.609375 99.9375 -38.953125 C 99.9375 -31.609375 98.617188 -25.191406 95.984375 -19.703125 C 93.347656 -14.222656 89.726562 -9.929688 85.125 -6.828125 C 80.519531 -3.722656 75.421875 -1.421875 69.828125 0.078125 C 64.242188 1.578125 58.191406 2.328125 51.671875 2.328125 C 46.085938 2.328125 40.601562 1.753906 35.21875 0.609375 C 29.84375 -0.523438 25.34375 -1.941406 21.71875 -3.640625 C 18.101562 -5.347656 14.847656 -7.03125 11.953125 -8.6875 C 9.054688 -10.34375 6.9375 -11.738281 5.59375 -12.875 L 3.5625 -14.59375 L 18.15625 -39.109375 C 19.394531 -38.078125 21.097656 -36.757812 23.265625 -35.15625 C 25.441406 -33.550781 29.296875 -31.398438 34.828125 -28.703125 C 40.367188 -26.015625 45.257812 -24.671875 49.5 -24.671875 C 61.8125 -24.671875 67.96875 -28.863281 67.96875 -37.25 C 67.96875 -39.007812 67.523438 -40.640625 66.640625 -42.140625 C 65.765625 -43.640625 64.210938 -45.140625 61.984375 -46.640625 C 59.765625 -48.140625 57.800781 -49.328125 56.09375 -50.203125 C 54.394531 -51.078125 51.601562 -52.421875 47.71875 -54.234375 C 43.84375 -56.046875 40.972656 -57.414062 39.109375 -58.34375 C 31.347656 -62.175781 25.347656 -66.960938 21.109375 -72.703125 C 16.867188 -78.441406 14.75 -84.625 14.75 -91.25 C 14.75 -102.726562 18.988281 -112.113281 27.46875 -119.40625 C 35.945312 -126.707031 45.617188 -130.359375 56.484375 -130.359375 Z"/></g>
    <g transform="translate(600.988411, 192.99665)"><path d="M 13.96875 -79.609375 L 13.96875 -109.25 L 41.4375 -109.25 L 41.4375 -79.609375 L 58.203125 -79.609375 L 58.203125 -58.65625 L 41.4375 -58.65625 L 41.4375 -33.359375 C 41.4375 -26.015625 43.503906 -22.34375 47.640625 -22.34375 C 48.671875 -22.34375 49.753906 -22.550781 50.890625 -22.96875 C 52.035156 -23.382812 52.921875 -23.796875 53.546875 -24.203125 L 54.46875 -24.828125 L 61.296875 -2.640625 C 55.398438 0.671875 48.675781 2.328125 41.125 2.328125 C 35.945312 2.328125 31.492188 1.421875 27.765625 -0.390625 C 24.046875 -2.203125 21.226562 -4.632812 19.3125 -7.6875 C 17.40625 -10.738281 16.035156 -13.941406 15.203125 -17.296875 C 14.378906 -20.660156 13.96875 -24.257812 13.96875 -28.09375 L 13.96875 -58.65625 L 2.484375 -58.65625 L 2.484375 -79.609375 Z"/></g>
    <g transform="translate(655.460573, 192.99665)"><path d="M 16.828125 -9.46875 C 7.984375 -17.332031 3.5625 -27.421875 3.5625 -39.734375 C 3.5625 -52.046875 8.164062 -62.15625 17.375 -70.0625 C 26.582031 -77.976562 37.960938 -81.9375 51.515625 -81.9375 C 64.867188 -81.9375 76.125 -77.953125 85.28125 -69.984375 C 94.4375 -62.023438 99.015625 -51.941406 99.015625 -39.734375 C 99.015625 -27.523438 94.535156 -17.460938 85.578125 -9.546875 C 76.628906 -1.628906 65.273438 2.328125 51.515625 2.328125 C 37.242188 2.328125 25.679688 -1.601562 16.828125 -9.46875 Z M 38.09375 -53.21875 C 34.53125 -49.707031 32.75 -45.207031 32.75 -39.71875 C 32.75 -34.238281 34.453125 -29.765625 37.859375 -26.296875 C 41.273438 -22.835938 45.773438 -21.109375 51.359375 -21.109375 C 56.742188 -21.109375 61.164062 -22.863281 64.625 -26.375 C 68.09375 -29.894531 69.828125 -34.347656 69.828125 -39.734375 C 69.828125 -45.210938 68.039062 -49.707031 64.46875 -53.21875 C 60.90625 -56.738281 56.535156 -58.5 51.359375 -58.5 C 46.085938 -58.5 41.664062 -56.738281 38.09375 -53.21875 Z"/></g>
    <g transform="translate(751.213791, 192.99665)"><path d="M 9.3125 0 L 9.3125 -79.609375 L 36.78125 -79.609375 L 36.78125 -68.125 L 37.09375 -68.125 C 37.300781 -68.539062 37.632812 -69.054688 38.09375 -69.671875 C 38.5625 -70.296875 39.570312 -71.382812 41.125 -72.9375 C 42.675781 -74.488281 44.332031 -75.882812 46.09375 -77.125 C 47.851562 -78.363281 50.128906 -79.472656 52.921875 -80.453125 C 55.710938 -81.441406 58.554688 -81.9375 61.453125 -81.9375 C 64.453125 -81.9375 67.398438 -81.519531 70.296875 -80.6875 C 73.191406 -79.863281 75.3125 -79.039062 76.65625 -78.21875 L 78.828125 -76.96875 L 67.34375 -53.6875 C 63.9375 -56.59375 59.179688 -58.046875 53.078125 -58.046875 C 49.765625 -58.046875 46.914062 -57.316406 44.53125 -55.859375 C 42.15625 -54.410156 40.472656 -52.648438 39.484375 -50.578125 C 38.503906 -48.515625 37.804688 -46.757812 37.390625 -45.3125 C 36.984375 -43.863281 36.78125 -42.726562 36.78125 -41.90625 L 36.78125 0 Z"/></g>
    <g transform="translate(821.67078, 192.99665)"><path d="M 69.671875 -79.609375 L 101.34375 -79.609375 L 38.796875 40.34375 L 7.140625 40.34375 L 34.609375 -12.421875 L -3.109375 -79.609375 L 28.546875 -79.609375 L 50.75 -38.796875 Z"/></g>
  </g>
  <!-- Yellow question mark icon -->
  <g clip-path="url(#icon-clip)">
    <path fill="#f6b900" d="M 39.171875 210.546875 C 40.425781 218.46875 47.296875 224.527344 55.589844 224.527344 C 63.882812 224.527344 70.753906 218.46875 72.007812 210.546875 C 72.109375 209.871094 71.941406 209.226562 71.5 208.683594 C 71.058594 208.144531 70.449219 207.875 69.773438 207.875 L 41.441406 207.875 C 40.765625 207.875 40.15625 208.144531 39.714844 208.683594 C 39.242188 209.226562 39.070312 209.835938 39.171875 210.546875 Z M 73.667969 182.351562 C 78.914062 182.351562 83.179688 186.613281 83.179688 191.863281 C 83.179688 197.109375 78.914062 201.375 73.667969 201.375 L 37.515625 201.375 C 32.269531 201.375 28.003906 197.109375 28.003906 191.863281 C 28.003906 188.714844 29.558594 185.90625 31.929688 184.179688 L 69.402344 155 C 72.210938 152.796875 75.222656 150.363281 78.132812 148.195312 C 82.195312 144.910156 85.546875 140.75 87.882812 136.042969 C 90.183594 131.335938 91.503906 125.957031 91.503906 120.234375 C 91.503906 110.316406 87.476562 101.347656 80.976562 94.847656 C 74.480469 88.347656 65.507812 84.320312 55.589844 84.320312 C 45.671875 84.320312 36.703125 88.347656 30.203125 94.847656 C 23.703125 101.347656 19.675781 110.316406 19.675781 120.234375 C 19.675781 127.105469 21.570312 133.503906 24.855469 138.886719 C 28.273438 144.503906 33.214844 149.144531 39.105469 152.15625 C 43.742188 154.558594 45.570312 160.28125 43.203125 164.917969 C 40.796875 169.554688 35.078125 171.382812 30.441406 169.011719 C 21.46875 164.375 13.921875 157.335938 8.675781 148.738281 C 3.628906 140.410156 0.683594 130.660156 0.683594 120.234375 C 0.683594 105.070312 6.847656 91.359375 16.765625 81.410156 C 26.714844 71.492188 40.425781 65.328125 55.589844 65.328125 C 70.753906 65.328125 84.464844 71.492188 94.417969 81.410156 C 104.335938 91.328125 110.496094 105.070312 110.496094 120.234375 C 110.496094 128.832031 108.464844 137.023438 104.875 144.371094 C 101.289062 151.648438 96.175781 158.011719 89.949219 163.054688 C 86.867188 165.628906 83.007812 168.503906 79.828125 170.976562 L 65.203125 182.351562 Z" fill-opacity="1" fill-rule="evenodd"/>
  </g>
</svg>
