<svg xmlns="http://www.w3.org/2000/svg" viewBox="0 60 112 170" fill="none">
  <path fill="#f6b900" d="M 39.171875 210.546875 C 40.425781 218.46875 47.296875 224.527344 55.589844 224.527344 C 63.882812 224.527344 70.753906 218.46875 72.007812 210.546875 C 72.109375 209.871094 71.941406 209.226562 71.5 208.683594 C 71.058594 208.144531 70.449219 207.875 69.773438 207.875 L 41.441406 207.875 C 40.765625 207.875 40.15625 208.144531 39.714844 208.683594 C 39.242188 209.226562 39.070312 209.835938 39.171875 210.546875 Z M 73.667969 182.351562 C 78.914062 182.351562 83.179688 186.613281 83.179688 191.863281 C 83.179688 197.109375 78.914062 201.375 73.667969 201.375 L 37.515625 201.375 C 32.269531 201.375 28.003906 197.109375 28.003906 191.863281 C 28.003906 188.714844 29.558594 185.90625 31.929688 184.179688 L 69.402344 155 C 72.210938 152.796875 75.222656 150.363281 78.132812 148.195312 C 82.195312 144.910156 85.546875 140.75 87.882812 136.042969 C 90.183594 131.335938 91.503906 125.957031 91.503906 120.234375 C 91.503906 110.316406 87.476562 101.347656 80.976562 94.847656 C 74.480469 88.347656 65.507812 84.320312 55.589844 84.320312 C 45.671875 84.320312 36.703125 88.347656 30.203125 94.847656 C 23.703125 101.347656 19.675781 110.316406 19.675781 120.234375 C 19.675781 127.105469 21.570312 133.503906 24.855469 138.886719 C 28.273438 144.503906 33.214844 149.144531 39.105469 152.15625 C 43.742188 154.558594 45.570312 160.28125 43.203125 164.917969 C 40.796875 169.554688 35.078125 171.382812 30.441406 169.011719 C 21.46875 164.375 13.921875 157.335938 8.675781 148.738281 C 3.628906 140.410156 0.683594 130.660156 0.683594 120.234375 C 0.683594 105.070312 6.847656 91.359375 16.765625 81.410156 C 26.714844 71.492188 40.425781 65.328125 55.589844 65.328125 C 70.753906 65.328125 84.464844 71.492188 94.417969 81.410156 C 104.335938 91.328125 110.496094 105.070312 110.496094 120.234375 C 110.496094 128.832031 108.464844 137.023438 104.875 144.371094 C 101.289062 151.648438 96.175781 158.011719 89.949219 163.054688 C 86.867188 165.628906 83.007812 168.503906 79.828125 170.976562 L 65.203125 182.351562 Z" fill-opacity="1" fill-rule="evenodd"/>
</svg>
